<svg xmlns="http://www.w3.org/2000/svg" version="1.1" xmlns:xlink="http://www.w3.org/1999/xlink" xmlns:svgjs="http://svgjs.com/svgjs" width="1440" height="560" preserveAspectRatio="none" viewBox="0 0 1440 560"><g mask="url(&quot;#SvgjsMask1020&quot;)" fill="none"><rect width="1440" height="560" x="0" y="0" fill="rgba(0, 0, 0, 1)"></rect><path d="M0 15.13L10 78.02L20 21.45L30 50.14L40 102.29L50 67.39L60 90.07L70 112.98L80 174.15L90 169.11L100 160.05L110 220.83L120 158.47L130 197.57L140 263.67L150 312.17L160 294.77L170 347.57L180 405.3L190 414.55L200 483.96L210 464.21L220 492.95L230 462.02L240 521.08L250 455.1L260 396.95L270 385.5L280 373.43L290 356.36L300 293.65L310 298.6L320 348.5L330 367.59L340 408.03L350 421.11L360 431.64L370 500.73L380 497.7L390 521.92L400 452.57L410 511.94L420 540.12L430 507.76L440 447.4L450 431.69L460 469.08L470 501.25L480 498.83L490 528.32L500 469.14L510 483.64L520 441.18L530 415.38L540 449.02L550 382.1L560 384.47L570 356.7L580 344.05L590 385.27L600 390.55L610 369.58L620 400.23L630 375.63L640 324.27L650 384L660 425.65L670 391.63L680 398.24L690 357.57L700 312.09L710 247.33L720 261.21L730 274.83L740 244.52L750 290.04L760 296.78L770 272.73L780 312.32L790 361.71L800 354.29L810 409.27L820 455.47L830 433.78L840 501.25L850 468.17L860 422.61L870 487.68L880 448.33L890 485.48L900 492.88L910 428.09L920 390.76L930 429.7L940 409.01L950 400.88L960 391.22L970 373.9L980 361.97L990 395.7L1000 464.36L1010 521.16L1020 490.23L1030 470.59L1040 438.12L1050 457.36L1060 440.23L1070 509.75L1080 444.72L1090 418.71L1100 367.92L1110 414.76L1120 480.96L1130 476.13L1140 431.22L1150 473.56L1160 409.08L1170 449.35L1180 465.93L1190 407.15L1200 430.38L1210 465.53L1220 525.31L1230 483.37L1240 482.43L1250 447.76L1260 383.27L1270 378.88L1280 351.07L1290 319.43L1300 288.59L1310 237.9L1320 298.83L1330 333.11L1340 385.43L1350 391.01L1360 413.93L1370 408.15L1380 449.84L1390 509.97L1400 452.36L1410 440.47L1420 488.32L1430 538.8L1440 507.16" stroke="rgba(21, 117, 198, 1)" stroke-width="2"></path><path d="M0 15.13L10 78.02L20 21.45L30 50.14L40 102.29L50 67.39L60 90.07L70 112.98L80 174.15L90 169.11L100 160.05L110 220.83L120 158.47L130 197.57L140 263.67L150 312.17L160 294.77L170 347.57L180 405.3L190 414.55L200 483.96L210 464.21L220 492.95L230 462.02L240 521.08L250 455.1L260 396.95L270 385.5L280 373.43L290 356.36L300 293.65L310 298.6L320 348.5L330 367.59L340 408.03L350 421.11L360 431.64L370 500.73L380 497.7L390 521.92L400 452.57L410 511.94L420 540.12L430 507.76L440 447.4L450 431.69L460 469.08L470 501.25L480 498.83L490 528.32L500 469.14L510 483.64L520 441.18L530 415.38L540 449.02L550 382.1L560 384.47L570 356.7L580 344.05L590 385.27L600 390.55L610 369.58L620 400.23L630 375.63L640 324.27L650 384L660 425.65L670 391.63L680 398.24L690 357.57L700 312.09L710 247.33L720 261.21L730 274.83L740 244.52L750 290.04L760 296.78L770 272.73L780 312.32L790 361.71L800 354.29L810 409.27L820 455.47L830 433.78L840 501.25L850 468.17L860 422.61L870 487.68L880 448.33L890 485.48L900 492.88L910 428.09L920 390.76L930 429.7L940 409.01L950 400.88L960 391.22L970 373.9L980 361.97L990 395.7L1000 464.36L1010 521.16L1020 490.23L1030 470.59L1040 438.12L1050 457.36L1060 440.23L1070 509.75L1080 444.72L1090 418.71L1100 367.92L1110 414.76L1120 480.96L1130 476.13L1140 431.22L1150 473.56L1160 409.08L1170 449.35L1180 465.93L1190 407.15L1200 430.38L1210 465.53L1220 525.31L1230 483.37L1240 482.43L1250 447.76L1260 383.27L1270 378.88L1280 351.07L1290 319.43L1300 288.59L1310 237.9L1320 298.83L1330 333.11L1340 385.43L1350 391.01L1360 413.93L1370 408.15L1380 449.84L1390 509.97L1400 452.36L1410 440.47L1420 488.32L1430 538.8L1440 507.16L1440 560L0 560z" fill="url(#SvgjsLinearGradient1021)"></path></g><defs><mask id="SvgjsMask1020"><rect width="1440" height="560" fill="#ffffff"></rect></mask><linearGradient x1="50%" y1="0%" x2="50%" y2="100%" id="SvgjsLinearGradient1021"><stop stop-opacity="0.65" stop-color="rgba(21, 117, 198, 1)" offset="0"></stop><stop stop-opacity="0" stop-color="#a6d1f6" offset="0.8"></stop></linearGradient></defs></svg>